<svg width="32" height="32" viewBox="0 0 32 32" fill="none" xmlns="http://www.w3.org/2000/svg">
<rect width="32" height="32" rx="5" fill="#F3F6F9"/>
<path d="M9 10.625V9.75C9 9.33438 9.33437 9 9.75 9H13.25L13.5437 8.41563C13.6687 8.15938 13.9281 8 14.2125 8H17.7844C18.0687 8 18.3281 8.15938 18.4562 8.41563L18.75 9H22.25C22.6656 9 23 9.33438 23 9.75V10.625C23 10.8312 22.8312 11 22.625 11H9.375C9.16875 11 9 10.8312 9 10.625ZM22 12.375V22.5C22 23.3281 21.3281 24 20.5 24H11.5C10.6719 24 10 23.3281 10 22.5V12.375C10 12.1687 10.1687 12 10.375 12H21.625C21.8312 12 22 12.1687 22 12.375ZM13.5 14.5C13.5 14.225 13.275 14 13 14C12.725 14 12.5 14.225 12.5 14.5V21.5C12.5 21.775 12.725 22 13 22C13.275 22 13.5 21.775 13.5 21.5V14.5ZM16.5 14.5C16.5 14.225 16.275 14 16 14C15.725 14 15.5 14.225 15.5 14.5V21.5C15.5 21.775 15.725 22 16 22C16.275 22 16.5 21.775 16.5 21.5V14.5ZM19.5 14.5C19.5 14.225 19.275 14 19 14C18.725 14 18.5 14.225 18.5 14.5V21.5C18.5 21.775 18.725 22 19 22C19.275 22 19.5 21.775 19.5 21.5V14.5Z" fill="#E74C3C"/>
</svg>
