<svg width="32" height="32" viewBox="0 0 32 32" fill="none" xmlns="http://www.w3.org/2000/svg">
<rect width="32" height="32" rx="5" fill="#F3F6F9"/>
<path d="M19.1833 11.3083L21.6889 13.8139C21.7944 13.9194 21.7944 14.0917 21.6889 14.1972L15.6222 20.2639L13.0444 20.55C12.7 20.5889 12.4083 20.2972 12.4472 19.9528L12.7333 17.375L18.8 11.3083C18.9056 11.2028 19.0778 11.2028 19.1833 11.3083ZM23.6833 10.6722L22.3278 9.31667C21.9056 8.89444 21.2194 8.89444 20.7944 9.31667L19.8111 10.3C19.7056 10.4056 19.7056 10.5778 19.8111 10.6833L22.3167 13.1889C22.4222 13.2944 22.5944 13.2944 22.7 13.1889L23.6833 12.2056C24.1056 11.7806 24.1056 11.0944 23.6833 10.6722ZM18.6667 18.6139V21.4417H9.77778V12.5528H16.1611C16.25 12.5528 16.3333 12.5167 16.3972 12.4556L17.5083 11.3444C17.7194 11.1333 17.5694 10.775 17.2722 10.775H9.33333C8.59722 10.775 8 11.3722 8 12.1083V21.8861C8 22.6222 8.59722 23.2194 9.33333 23.2194H19.1111C19.8472 23.2194 20.4444 22.6222 20.4444 21.8861V17.5028C20.4444 17.2056 20.0861 17.0583 19.875 17.2667L18.7639 18.3778C18.7028 18.4417 18.6667 18.525 18.6667 18.6139Z" fill="#3C5DAA"/>
</svg>
